<?xml version="1.0" standalone="no"?>
<!DOCTYPE svg PUBLIC "-//W3C//DTD SVG 20010904//EN"
 "http://www.w3.org/TR/2001/REC-SVG-20010904/DTD/svg10.dtd">
<svg version="1.0" xmlns="http://www.w3.org/2000/svg"
 width="200.000000pt" height="200.000000pt" viewBox="0 0 200.000000 200.000000"
 preserveAspectRatio="xMidYMid meet">

<g transform="translate(0.000000,200.000000) scale(0.100000,-0.100000)"
fill="#000000" stroke="none">
<path d="M0 1000 l0 -1000 1000 0 1000 0 0 1000 0 1000 -1000 0 -1000 0 0
-1000z m510 161 l0 -50 38 -3 c35 -3 37 -5 37 -38 0 -33 -2 -35 -37 -38 l-38
-3 0 -54 c0 -82 12 -105 55 -105 34 0 35 -1 35 -41 l0 -41 -62 4 c-51 4 -65 9
-85 32 -22 26 -23 33 -23 207 l0 179 40 0 40 0 0 -49z m971 -76 c97 -63 89
-228 -13 -281 -41 -21 -134 -22 -174 -1 -101 52 -122 186 -42 265 58 55 158
63 229 17z m-727 -82 c16 -57 33 -103 36 -103 3 0 23 48 44 106 l39 105 46 -3
46 -3 39 -103 c21 -56 42 -100 45 -96 3 3 20 49 36 102 l31 97 42 3 c30 2 42
-1 42 -10 0 -12 -76 -243 -95 -291 -6 -14 -17 -17 -54 -15 l-46 3 -40 102
c-22 56 -43 103 -46 103 -3 0 -24 -46 -45 -102 l-39 -103 -49 0 -49 0 -49 145
c-26 79 -48 150 -48 158 0 9 12 12 42 10 l41 -3 31 -102z m910 -155 c14 -23
-3 -52 -33 -56 -42 -6 -67 38 -39 66 17 17 58 11 72 -10z"/>
<path d="M1334 1029 c-39 -20 -54 -76 -33 -123 23 -50 112 -58 144 -13 20 29
19 90 -2 116 -21 25 -78 35 -109 20z"/>
</g>
</svg>
